<?xml version="1.0" encoding="UTF-8"?>
<svg id="Layer_1" xmlns="http://www.w3.org/2000/svg" version="1.1" viewBox="0 0 210 210">
  <!-- Generator: Adobe Illustrator 29.5.0, SVG Export Plug-In . SVG Version: 2.1.0 Build 137)  -->
  <defs>
    <style>
      .st0 {
        fill: #fff;
      }

      .st1 {
        fill: #00e013;
        fill-rule: evenodd;
      }
    </style>
  </defs>
  <path class="st1" d="M73.1350021,0c-21.0100021,0-31.5149994,0-42.8199997,3.5C17.9090004,8,8.1040001,17.7999992,3.602,30.2000008,0,41.5999985,0,52.0999985,0,73.1999969v63.5999908c0,21.1999969,0,31.6000061,3.5020001,42.8999939,4.5019996,12.3999939,14.3069999,22.1999969,26.7130001,26.6999969,11.4049988,3.6000061,21.9099998,3.6000061,42.9199944,3.6000061h63.6300049c21.1100006,0,31.6150055,0,42.9199982-3.6000061,12.4060059-4.5,22.2109985-14.3000031,26.7129974-26.6999969,3.602005-11.3999786,3.602005-21.8999786,3.602005-42.8999786v-63.5c0-21.0999985,0-31.5999985-3.602005-42.9000015-4.4019928-12.4000015-14.2059937-22.2000017-26.6119995-26.7000015-11.3059998-3.7-21.7109985-3.7-42.92099-3.7h-63.7300034Z"/>
  <path class="st0" d="M113.6539993,94.8000031c22.1110001,4.6999969,32.215004,13.9000015,32.215004,29.4000015,0,19.4000015-15.8079987,33.7000046-40.5189972,35.2999954l-2.401001,11.5c-.1999969,1.1000061-1.2009964,1.8999939-2.401001,1.8999939h-19.0090027c-1.6009979,0-2.7009964-1.5-2.401001-3l3.0009995-12.8000031c-12.2060013-3.5-22.1110001-10.3000031-27.8129997-18.6000061-.7000008-1.1000061-.5-2.5.5-3.3000031l13.2059975-10.3000031c1.1009979-.9000015,2.7009964-.5999985,3.5019989.5,7.0029984,9.8000031,17.8079987,15.6000061,30.8150024,15.6000061,11.7060013,0,20.5100021-5.6999969,20.5100021-13.9000015,0-6.3000031-4.4020004-9.1999969-19.3089981-12.3000031-25.4120026-5.5-35.5169983-14.9000015-35.5169983-30.4000015,0-18,15.1070023-31.5,37.9179993-33.2999992l2.5009995-11.8999977c.1999969-1.0999985,1.2009964-1.9000015,2.401001-1.9000015h18.7090073c1.5010071,0,2.701004,1.4000015,2.401001,2.9000015l-2.901001,13.2999992c9.8049927,3,17.8079987,8.3999977,22.8110046,15.1000023.8000031,1,.6000061,2.5-.3999939,3.3000031l-12.1060028,9.9000015c-1.1009979.9000015-2.6009979.6999969-3.4019928-.4000015-6.2030029-7.5999985-15.8079987-11.9000015-26.3130035-11.9000015-11.7060013,0-19.0090027,5.0999985-19.0090027,12.3000031-.2000198,6.0000153,5.5029831,9.2000122,23.0109787,13.0000153Z"/>
</svg>
